<svg xmlns="http://www.w3.org/2000/svg" xmlns:xlink="http://www.w3.org/1999/xlink" width="600" zoomAndPan="magnify" viewBox="0 0 450 449.999984" height="600" preserveAspectRatio="xMidYMid meet" version="1.0"><defs><clipPath id="774def1d16"><path d="M 2 59 L 289 59 L 289 404 L 2 404 Z M 2 59 " clip-rule="nonzero"/></clipPath><clipPath id="a377abbe14"><path d="M -5.332031 128.871094 L 174.996094 51.796875 L 295.554688 333.867188 L 115.226562 410.941406 Z M -5.332031 128.871094 " clip-rule="nonzero"/></clipPath><clipPath id="c43bd7ec9c"><path d="M 14.980469 121.019531 L 155.984375 60.753906 C 161.105469 58.566406 166.886719 58.5 172.054688 60.574219 C 177.226562 62.648438 181.359375 66.6875 183.546875 71.808594 L 287.164062 314.238281 C 289.355469 319.359375 289.417969 325.140625 287.34375 330.308594 C 285.269531 335.476562 281.230469 339.613281 276.109375 341.800781 L 135.101562 402.066406 C 129.980469 404.257812 124.199219 404.320312 119.03125 402.25 C 113.863281 400.175781 109.726562 396.132812 107.539062 391.011719 L 3.921875 148.585938 C 1.734375 143.464844 1.667969 137.683594 3.742188 132.511719 C 5.816406 127.34375 9.859375 123.210938 14.980469 121.019531 Z M 14.980469 121.019531 " clip-rule="nonzero"/></clipPath><clipPath id="3a4649cc6d"><path d="M 128.046875 39 L 324.15625 39 L 324.15625 345.667969 L 128.046875 345.667969 Z M 128.046875 39 " clip-rule="nonzero"/></clipPath><clipPath id="a8178d3cfe"><path d="M 149.808594 39.675781 L 303.15625 39.675781 C 308.722656 39.675781 314.066406 41.890625 318.003906 45.828125 C 321.941406 49.765625 324.15625 55.109375 324.15625 60.675781 L 324.15625 324.320312 C 324.15625 329.886719 321.941406 335.230469 318.003906 339.167969 C 314.066406 343.105469 308.722656 345.320312 303.15625 345.320312 L 149.808594 345.320312 C 144.238281 345.320312 138.898438 343.105469 134.960938 339.167969 C 131.023438 335.230469 128.808594 329.886719 128.808594 324.320312 L 128.808594 60.675781 C 128.808594 55.109375 131.023438 49.765625 134.960938 45.828125 C 138.898438 41.890625 144.238281 39.675781 149.808594 39.675781 Z M 149.808594 39.675781 " clip-rule="nonzero"/></clipPath><clipPath id="0f23547f81"><path d="M 165 60 L 449 60 L 449 404 L 165 404 Z M 165 60 " clip-rule="nonzero"/></clipPath><clipPath id="e1135d56de"><path d="M 272.6875 52.859375 L 454.617188 126.074219 L 340.09375 410.648438 L 158.164062 337.433594 Z M 272.6875 52.859375 " clip-rule="nonzero"/></clipPath><clipPath id="e22b9e36de"><path d="M 292.589844 61.691406 L 434.847656 118.941406 C 440.015625 121.019531 444.144531 125.066406 446.328125 130.191406 C 448.511719 135.316406 448.570312 141.097656 446.492188 146.261719 L 348.0625 390.84375 C 345.984375 396.007812 341.9375 400.136719 336.8125 402.320312 C 331.6875 404.503906 325.90625 404.5625 320.742188 402.484375 L 178.484375 345.234375 C 173.316406 343.15625 169.1875 339.109375 167.003906 333.984375 C 164.820312 328.859375 164.761719 323.078125 166.84375 317.910156 L 265.269531 73.332031 C 267.347656 68.164062 271.394531 64.035156 276.519531 61.855469 C 281.644531 59.671875 287.425781 59.613281 292.589844 61.691406 Z M 292.589844 61.691406 " clip-rule="nonzero"/></clipPath></defs><g clip-path="url(#774def1d16)"><g clip-path="url(#a377abbe14)"><g clip-path="url(#c43bd7ec9c)"><path fill="#323696" d="M -4.332031 129.273438 L 175.292969 52.5 L 295.554688 333.867188 L 115.929688 410.640625 Z M -4.332031 129.273438 " fill-opacity="1" fill-rule="nonzero"/></g></g></g><g clip-path="url(#3a4649cc6d)"><g clip-path="url(#a8178d3cfe)"><path fill="#5e17eb" d="M 128.808594 39.675781 L 324.15625 39.675781 L 324.15625 345.667969 L 128.808594 345.667969 Z M 128.808594 39.675781 " fill-opacity="1" fill-rule="nonzero"/></g></g><g clip-path="url(#0f23547f81)"><g clip-path="url(#e1135d56de)"><g clip-path="url(#e22b9e36de)"><path fill="#686fff" d="M 273.109375 53.851562 L 454.332031 126.78125 L 340.09375 410.648438 L 158.871094 337.714844 Z M 273.109375 53.851562 " fill-opacity="1" fill-rule="nonzero"/></g></g></g></svg>